<svg width="68" height="66" viewBox="0 0 68 66" fill="none" xmlns="http://www.w3.org/2000/svg">
<path d="M46.0278 63.7286C45.1642 63.5594 44.3006 63.3901 43.437 63.2208C42.9482 63.1254 42.4604 63.0038 41.9671 62.949C38.6339 62.5747 35.2952 62.2623 31.9418 62.5603C30.4662 62.6915 28.9928 62.8536 27.525 63.0563C26.697 63.1738 25.877 63.3486 25.0705 63.5796C23.6557 63.9814 22.2545 63.8586 20.8667 63.5141C19.364 63.1421 18.0224 62.4304 17.0774 61.0749C16.2111 59.8339 15.9645 58.4248 16.1402 56.9156C16.4578 54.1939 17.796 52.085 19.6107 50.2157C20.8656 48.9497 22.0485 47.6062 23.1534 46.1922C24.415 44.5411 25.0751 42.5669 25.4569 40.4819C25.8748 38.1882 26.5372 35.9887 28.068 34.2148C30.0314 31.939 32.5377 31.0115 35.374 31.3048C38.8412 31.6624 41.2844 33.6533 42.5832 37.0783C43.0924 38.4254 43.4021 39.862 43.7558 41.2699C44.319 43.5171 45.3171 45.5163 46.8254 47.1972C48.0532 48.5658 49.3891 49.8259 50.6203 51.1921C52.1973 52.9421 53.0703 55.0618 53.1334 57.483C53.1942 59.7946 52.1455 61.4838 50.2339 62.5603C48.9262 63.2911 47.517 63.6023 46.0278 63.7286Z" stroke="#D90000" stroke-width="2.5"/>
<path d="M42.973 11.2315C43.7142 14.4324 43.3605 18.4308 41.0265 22.1145C39.9462 23.8193 38.483 25.0711 36.6582 25.7088C34.4751 26.4718 32.3225 26.1619 30.3997 24.8207C27.6884 22.9323 26.17 20.1952 25.556 16.8405C25.0323 14.0092 25.2035 11.2541 26.179 8.56583C27.0519 6.16008 28.4825 4.19901 30.6329 2.96276C32.9725 1.61087 35.7401 1.61206 38.2949 3.41815C40.6131 5.05616 41.9592 7.42495 42.973 11.2315Z" stroke="#D90000" stroke-width="2.5"/>
<path d="M66.0581 32.8951C65.2932 36.09 63.2071 39.4447 59.5113 41.5369C57.8002 42.5049 55.954 42.8829 54.0605 42.5395C51.7941 42.1282 50.0312 40.7847 48.9284 38.6448C47.3728 35.6299 47.2467 32.4588 48.1872 29.1887C48.9825 26.4289 50.3545 24.0816 52.4091 22.192C54.2474 20.5028 56.3809 19.4823 58.8298 19.4573C61.4983 19.4298 63.9415 20.808 65.3969 23.6715C66.7159 26.2704 66.8522 29.0302 66.0581 32.8951Z" stroke="#D90000" stroke-width="2.5"/>
<path d="M17.8005 24.1197C20.032 26.4182 21.734 30.0089 21.5977 34.4413C21.5347 36.4941 20.9219 38.3753 19.6918 39.9394C18.2274 41.8099 16.2415 42.7541 13.9391 42.6957C10.695 42.6122 8.0366 41.1459 5.82879 38.6424C3.97017 36.5371 2.73673 34.1051 2.22082 31.2773C1.75786 28.7476 1.99554 26.2834 3.19406 24.0267C4.50523 21.5673 6.85497 20.0164 9.92563 20.1153C12.709 20.2047 15.0363 21.46 17.8005 24.1197Z" stroke="#D90000" stroke-width="2.5"/>
<path d="M40.136 49.137C41.6543 50.5466 42.5806 52.9001 41.9116 55.9988C41.6018 57.4328 40.8664 58.7962 39.6734 59.9909C38.2462 61.4201 36.5215 62.2476 34.663 62.4039C32.0431 62.6258 30.0741 61.8303 28.6065 60.2775C27.3635 58.9697 26.6702 57.3816 26.6067 55.4574C26.5498 53.7355 27.0486 51.9988 28.3096 50.3256C29.6796 48.5014 31.7784 47.2198 34.2549 47.0254C36.5019 46.8484 38.2302 47.5221 40.136 49.137Z" stroke="#D90000" stroke-width="2.5"/>
<path d="M35.235 53.8785C35.4784 54.1171 35.6358 54.5047 35.5508 55.0023C35.5115 55.2326 35.4059 55.4486 35.2284 55.6342C35.0162 55.8562 34.7543 55.9787 34.4677 55.9916C34.0636 56.01 33.7542 55.8678 33.5178 55.6064C33.3177 55.3861 33.2009 55.1241 33.1796 54.8119C33.1604 54.5325 33.2272 54.2544 33.4123 53.9917C33.6133 53.7053 33.9304 53.5117 34.3124 53.4968C34.659 53.4833 34.9305 53.604 35.235 53.8785Z" stroke="#D90000" stroke-width="2.5"/>
</svg>
